# xmcd CD database file
#
# Track frame offsets:
#	150
#	1367
#	2672
#	4007
#	4762
#	6520
#	7845
#	11157
#	14092
#	19087
#	22700
#	23512
#	25145
#	28370
#	30295
#	34937
#	38480
#	41477
#	44445
#	46515
#	48612
#	53005
#	54472
#	57685
#	58835
#	59970
#	62335
#	64712
#	66682
#	68465
#	69000
#	69975
#	70950
#	73617
#	77070
#	79907
#	82757
#	87610
#	90867
#	95935
#	100642
#	105362
#	109492
#	115560
#	120075
#	124890
#	126767
#	129967
#	134585
#	139420
#	143035
#	147502
#	152422
#	157322
#	163842
#	167307
#	173010
#	179547
#	185302
#	188820
#	195365
#	198122
#	201407
#	206112
#	211017
#	217240
#	221957
#	228565
#	233030
#	238932
#	241560
#	247500
#	250857
#	254017
#	257590
#	263830
#	270847
#	273797
#	278585
#	284355
#	288557
#	293032
#	296257
#	299482
#	302670
#	305635
#	307435
#	312617
#	315092
#	317567
#	320042
#	322962
#	325682
#	329907
#	332692
#	336497
#	342792
#	346957
#	349275
#
# Disc length: 4699 seconds
#
# Revision: 3
# Processed by: cddbd v1.5.2PL0 Copyright (c) Steve Scherf et al.
# Submitted via: CDex 1.70beta2
#
DISCID=a7125963
DTITLE=効果音 Victor - 効果音ライブラリー3 ［動物］
DYEAR=1900
DGENRE=
TTITLE0=犬:小型犬1
TTITLE1=小型犬2
TTITLE2=小型犬3
TTITLE3=中型犬1
TTITLE4=中型犬2
TTITLE5=中型犬3
TTITLE6=大型犬
TTITLE7=大型犬2
TTITLE8=エサを食べる
TTITLE9=水を飲む
TTITLE10=ケンカ
TTITLE11=遠吠え
TTITLE12=猫:小猫1
TTITLE13=小猫2(数匹)
TTITLE14=猫1
TTITLE15=猫2(数匹)
TTITLE16=エサを食べる
TTITLE17=水を飲む
TTITLE18=ケンカ
TTITLE19=馬:歩き1一頭
TTITLE20=歩き2二頭
TTITLE21=早足1一頭
TTITLE22=早足2二頭
TTITLE23=走り1接近～停止A
TTITLE24=走り2接近～停止B
TTITLE25=走り3通過A
TTITLE26=走り4通過B
TTITLE27=走り5数頭の走り
TTITLE28=いななき1
TTITLE29=いななき2
TTITLE30=ひづめ音1
TTITLE31=ひづめ音2
TTITLE32=牛:放牧の牛
TTITLE33=空腹の牛
TTITLE34=牛舎内
TTITLE35=群れの移動
TTITLE36=鳥:アオジ
TTITLE37=インコ
TTITLE38=ウグイス
TTITLE39=ウミガラス
TTITLE40=ウミネコ
TTITLE41=オウム
TTITLE42=オオハクチョウ
TTITLE43=オナガ
TTITLE44=カッコウ
TTITLE45=カラス
TTITLE46=カルガモ
TTITLE47=カワラヒワ
TTITLE48=キジ
TTITLE49=キジバト
TTITLE50=キョウジョシギ
TTITLE51=ゴイサギ
TTITLE52=コウノトリ
TTITLE53=シジュウカラ
TTITLE54=シマアオジ
TTITLE55=スズメ
TTITLE56=ツグミ
TTITLE57=ツバメ
TTITLE58=ツル
TTITLE59=トキ
TTITLE60=トビ
TTITLE61=ニワトリ
TTITLE62=ノゴマ
TTITLE63=ヒクイナ
TTITLE64=ヒバリ
TTITLE65=ヒヨドリ
TTITLE66=フクロウ
TTITLE67=ペンギン
TTITLE68=ホオジロ
TTITLE69=ホトトギス
TTITLE70=ユリカモメ
TTITLE71=鳥のコーラス1
TTITLE72=鳥のコーラス2
TTITLE73=鳥のコーラス3
TTITLE74=虫:アブラゼミ
TTITLE75=ヒグラシ
TTITLE76=ミンミンゼミ
TTITLE77=蝉しぐれ
TTITLE78=エンマコオロギ
TTITLE79=キリギリス
TTITLE80=スズムシ
TTITLE81=虫しぐれ1
TTITLE82=虫しぐれ2
TTITLE83=虫しぐれ3
TTITLE84=蜜蜂の大群
TTITLE85=その他:オオカミ
TTITLE86=オランウータン
TTITLE87=カエル1
TTITLE88=カエル2
TTITLE89=カジカ
TTITLE90=クマ
TTITLE91=ゾウ
TTITLE92=チンパンジー
TTITLE93=トラ
TTITLE94=ネズミ
TTITLE95=パンダ
TTITLE96=ブタ
TTITLE97=ヤギ
TTITLE98=ライオン
EXTD=
EXTT0=
EXTT1=
EXTT2=
EXTT3=
EXTT4=
EXTT5=
EXTT6=
EXTT7=
EXTT8=
EXTT9=
EXTT10=
EXTT11=
EXTT12=
EXTT13=
EXTT14=
EXTT15=
EXTT16=
EXTT17=
EXTT18=
EXTT19=
EXTT20=
EXTT21=
EXTT22=
EXTT23=
EXTT24=
EXTT25=
EXTT26=
EXTT27=
EXTT28=
EXTT29=
EXTT30=
EXTT31=
EXTT32=
EXTT33=
EXTT34=
EXTT35=
EXTT36=
EXTT37=
EXTT38=
EXTT39=
EXTT40=
EXTT41=
EXTT42=
EXTT43=
EXTT44=
EXTT45=
EXTT46=
EXTT47=
EXTT48=
EXTT49=
EXTT50=
EXTT51=
EXTT52=
EXTT53=
EXTT54=
EXTT55=
EXTT56=
EXTT57=
EXTT58=
EXTT59=
EXTT60=
EXTT61=
EXTT62=
EXTT63=
EXTT64=
EXTT65=
EXTT66=
EXTT67=
EXTT68=
EXTT69=
EXTT70=
EXTT71=
EXTT72=
EXTT73=
EXTT74=
EXTT75=
EXTT76=
EXTT77=
EXTT78=
EXTT79=
EXTT80=
EXTT81=
EXTT82=
EXTT83=
EXTT84=
EXTT85=
EXTT86=
EXTT87=
EXTT88=
EXTT89=
EXTT90=
EXTT91=
EXTT92=
EXTT93=
EXTT94=
EXTT95=
EXTT96=
EXTT97=
EXTT98=
PLAYORDER=
